<?xml version="1.0" standalone="no"?>
<!DOCTYPE svg PUBLIC "-//W3C//DTD SVG 20010904//EN"
 "http://www.w3.org/TR/2001/REC-SVG-20010904/DTD/svg10.dtd">
<svg version="1.0" xmlns="http://www.w3.org/2000/svg"
 width="246.000000pt" height="246.000000pt" viewBox="0 0 246.000000 246.000000"
 preserveAspectRatio="xMidYMid meet">
<metadata>
Created by potrace 1.11, written by Peter Selinger 2001-2013
</metadata>
<g transform="translate(0.000000,246.000000) scale(0.100000,-0.100000)"
fill="#000000" stroke="none">
<path d="M480 1585 c-59 -16 -116 -42 -138 -62 -7 -7 -17 -13 -21 -13 -4 0
-29 -21 -56 -47 -160 -156 -218 -394 -129 -534 23 -38 72 -80 109 -94 36 -14
153 -14 205 0 132 35 262 165 328 328 57 142 51 251 -19 346 -52 71 -175 104
-279 76z m127 -46 c32 -27 44 -69 42 -149 -5 -196 -121 -466 -221 -513 -48
-22 -104 -16 -136 17 -26 25 -27 32 -27 124 0 115 28 234 85 359 41 87 110
168 151 176 36 6 89 -1 106 -14z"/>
<path d="M2070 1593 c-107 -19 -207 -71 -285 -148 -96 -94 -139 -194 -139
-325 0 -93 17 -147 68 -207 84 -100 289 -119 405 -38 44 30 117 113 108 122
-4 3 -29 -15 -58 -41 -117 -105 -280 -99 -336 14 -62 121 7 381 134 506 81 81
177 102 255 56 32 -19 66 -82 70 -129 2 -34 23 -53 25 -24 1 9 13 62 26 119
14 56 23 102 20 102 -2 0 -15 -8 -29 -17 -23 -15 -33 -15 -83 -4 -65 15 -145
21 -181 14z"/>
<path d="M1000 1573 c0 -5 17 -14 38 -19 31 -8 38 -14 40 -38 2 -17 -33 -158
-79 -318 -88 -311 -101 -338 -159 -338 -16 0 -30 -5 -30 -11 0 -9 65 -10 238
-7 277 6 312 14 379 84 98 102 73 225 -57 282 l-57 26 62 21 c115 38 163 87
170 170 5 56 -24 102 -80 130 -35 17 -65 20 -252 23 -127 3 -213 0 -213 -5z
m349 -52 c71 -61 9 -231 -95 -260 -48 -13 -84 -14 -84 -2 0 9 65 243 75 269 7
19 79 15 104 -7z m-68 -338 c70 -59 38 -224 -54 -277 -36 -20 -167 -35 -167
-18 0 6 5 23 11 39 6 15 13 38 15 49 2 12 13 51 23 85 11 35 25 83 31 107 l11
43 51 -2 c37 -2 59 -9 79 -26z"/>
</g>
</svg>
